<svg xmlns="http://www.w3.org/2000/svg" viewBox="0 0 500 500" color="#ff2ea6">
  <path d="M340 25c-19 11-22 35-37 50-22 3-45-12-68-1-26 11-29-24-40-38-19-24-23 16-26 29-6 27-14 53-17 80-2 31 12 61 36 81 6 22-20 38-24 58-13 26-22 53-30 80-27-13-51-40-48-73-4-24 34-41 22-62-24-6-43 18-52 36-20 48 5 104 45 133 17 11 35 19 38 42 7 27 38 36 63 33 46-2 94 2 140-2 32-10 44-47 41-77-2-58-26-113-54-163 15-18 34-34 38-58 9-42-10-83-17-124-1-8-4-18-10-24z"/>
  <path d="M87 144c20 2 40 6 60 12 4 9-17 0-23 0-13-2-26-6-39-7-7-3-4-4 2-5zM436 144c7 9-15 7-21 9-15-1-30 9-43 6 6-7 18-6 27-9 12-3 25-4 37-6zM394 168c14 1 29 0 42 3 0 10-17 2-24 4l-36-2c-9-9 16-3 18-5zM115 167c9 1 29-5 31 4-10 3-21 1-32 2-10-1-22 3-31-2 9-6 22-2 32-4z"/>
  <ellipse cx="312" cy="145" fill="currentColor" rx="28" ry="22"/>
  <ellipse cx="312" cy="145.1" rx="7" ry="19"/>
  <ellipse cx="216" cy="145" fill="currentColor" rx="28" ry="22"/>
  <ellipse cx="216" cy="145.1" rx="7" ry="19"/>
</svg>
