<?xml version="1.0" encoding="UTF-8"?>
<svg version="1.1" viewBox="0 0 800 600.7" xmlns="http://www.w3.org/2000/svg">
  <path d="m478.61 89.303c-1.2244 0.14068-2.5556 0.85047-3.8906 2.1367-3.28 3.16-6.5914 6.5113-8.9414 10.361-7.14 11.69-13.939 23.6-20.609 35.58-1.95 3.51-3.6306 4.4782-7.8906 3.4082-9.51-2.39-19.209-4.4896-28.949-5.3496-17.24-1.53-34.181 0.91086-50.721 6.8809-0.77-1.28-1.4188-2.3494-2.0488-3.4394-7.14-12.38-14.111-24.85-21.521-37.07-2.26-3.73-5.4594-7.0098-8.6894-10.01-3.58-3.32-6.3187-2.5916-8.3887 1.8184-1.08 2.31-1.9706 4.7602-2.5606 7.2402-6.08 25.65-11.84 51.381-18.17 76.971-3.8 15.35-6.7607 30.61-5.2207 46.57 2.49 25.69 14 46.479 33.43 63.039 7.82 6.66 7.9713 6.4002 2.8613 15.16-16.66 28.54-31.561 57.93-42.521 89.16-4.19 11.95-7.6384 24.149-11.648 36.939l-0.02148-0.0293c-6.75-4.42-13.92-8.3802-20.24-13.41-17.86-14.2-28.279-32.429-27.959-55.799 0.22-16.07 7.2302-29.432 17.24-41.512 2.64-3.18 5.2597-6.4392 7.4297-9.9492 4.36-7.05-0.57922-18.56-10.449-16.98-3.46 0.55-7.0702 1.3905-10.16 2.9805-26.12 13.43-38.68 36.29-40.75 64.32-2.5 33.88 10.849 62.76 33.109 87.76 13.05 14.65 29.56 24.619 46.59 33.859 1.46 0.8 2.811 2.6202 3.291 4.2402 2.01 6.81 2.6289 14.21 5.6289 20.5 9.7 20.32 24.72 32.72 48.84 32.48 48.02-0.48 96.041-0.23032 144.06-0.07032 12.01 0.03 21.959-4.3402 30.459-12.41 14.52-13.8 20.321-31.4 21.471-50.85 2.08-35.09-6.1094-68.43-17.609-101.15-9.22-26.23-21.2-51.22-35-75.32-1.95-3.4-1.1602-5.1292 1.5898-7.3692 4.42-3.61 8.8387-7.3305 12.639-11.561 23.27-25.89 28.971-56.391 22.301-89.641-4.83-24.07-10.439-47.989-15.879-71.939-1.8-7.92-3.8313-15.81-6.3613-23.52-0.95625-2.9125-2.6976-4.2618-4.7383-4.0273z"/>
  <path d="m225.77 208.4c19.85 2.09 39.41 5.68 58.6 11.22 2.1 0.61 4.12 1.67 3.02 4.07-0.4 0.88-3.03 1.33-4.45 1.05-16.15-3.25-32.25-6.74-48.39-10.01-3.48-0.71-7.15-0.52-10.62-1.27-1.74-0.38-3.22-1.93-4.82-2.96 1.65-0.73 3.27-1.51 4.95-2.16 0.49-0.19 1.13 0.03 1.7 0.06z"/>
  <path d="m574.84 208.25c1.08 1 2.09 1.93 3.09 2.86-1.21 1.1-2.29 2.96-3.64 3.17-12.23 1.93-24.55 3.32-36.74 5.4-6.82 1.17-13.47 3.34-20.2 5.07-0.96 0.25-2 0.94-2.84 0.74-1.3-0.31-2.45-1.22-3.67-1.87 0.78-1.07 1.37-2.81 2.37-3.1 8.2-2.34 16.39-4.85 24.75-6.44 12.04-2.3 24.21-3.87 36.87-5.83z"/>
  <path d="m533.28 231.82c11.69 0.81 23.4 1.53 35.08 2.5 2.76 0.23 7.41-0.33 7.07 3.53-0.38 4.28-4.75 2.08-7.47 1.97-16.14-0.67-32.27-1.45-48.41-2.17-1.57-0.07-3.25 0.28-4.69-0.16-1.07-0.32-1.85-1.61-2.76-2.47 0.9-0.83 1.78-2.35 2.72-2.39 6.14-0.22 12.29-0.11 18.44-0.11 0-0.23 0.01-0.47 0.02-0.7z"/>
  <path d="m254.25 230.86c10.24 0 17.53-0.04 24.82 0.03 1.55 0.01 3.19 0.16 4.61 0.71 0.94 0.37 1.55 1.58 2.31 2.41-0.83 0.72-1.55 1.73-2.52 2.09-1.16 0.43-2.52 0.38-3.8 0.41-17.84 0.49-35.68 1.02-53.52 1.32-1.52 0.03-3.07-1.54-4.61-2.36 1.33-0.98 2.61-2.71 4.01-2.83 10.54-0.83 21.1-1.35 28.71-1.79z"/>
  <g transform="matrix(1.3696 0 0 1.6986 -125.23 -150.64)">
    <ellipse cx="343.93" cy="213.29" rx="20.697" ry="13.35" fill="#ff2ea6"/>
    <ellipse cx="343.74" cy="213.33" rx="5.2168" ry="11.654" stroke-width=".46907"/>
  </g>
  <g transform="matrix(1.3696 0 0 1.6986 -19.401 -150.64)">
    <ellipse cx="343.93" cy="213.29" rx="20.697" ry="13.35" fill="#ff2ea6"/>
    <ellipse cx="343.74" cy="213.33" rx="5.2168" ry="11.654" stroke-width=".46907"/>
  </g>
</svg>
